<?xml version="1.0" encoding="UTF-8"?>
<svg id="Livello_4" data-name="Livello 4" xmlns="http://www.w3.org/2000/svg" viewBox="0 0 48 48">
  <defs>
    <style>
      .cls-1 {
        fill: #4285f4;
      }

      .cls-1, .cls-2, .cls-3, .cls-4 {
        stroke-width: 0px;
      }

      .cls-2 {
        fill: #e94235;
      }

      .cls-3 {
        fill: #34a853;
      }

      .cls-4 {
        fill: #fbbc04;
      }
    </style>
  </defs>
  <path class="cls-1" d="m47.52,24.55c0-1.7-.15-3.34-.44-4.91h-22.6v9.28h12.92c-.56,3-2.25,5.54-4.79,7.24v6.02h7.76c4.54-4.18,7.16-10.33,7.16-17.64h0Z"/>
  <path class="cls-3" d="m24.48,48c6.48,0,11.91-2.15,15.88-5.81l-7.76-6.02c-2.15,1.44-4.9,2.29-8.13,2.29-6.25,0-11.54-4.22-13.43-9.89H3.03v6.22c3.95,7.84,12.07,13.22,21.45,13.22Z"/>
  <path class="cls-4" d="m11.05,28.56c-.48-1.44-.75-2.98-.75-4.56s.27-3.12.75-4.56v-6.22H3.03c-1.63,3.24-2.55,6.91-2.55,10.78s.93,7.54,2.55,10.78l8.02-6.22h0Z"/>
  <path class="cls-2" d="m24.48,9.55c3.52,0,6.69,1.21,9.17,3.59l6.88-6.88C36.38,2.38,30.95,0,24.48,0,15.1,0,6.98,5.38,3.03,13.22l8.02,6.22c1.89-5.67,7.18-9.89,13.43-9.89Z"/>
</svg>